<svg xmlns="http://www.w3.org/2000/svg" width="18.984" height="18" viewBox="0 0 18.984 18"><path d="M-6.633-6.094A2.91,2.91,0,0,1-4.5-6.984a2.949,2.949,0,0,1,2.133.867,2.86,2.86,0,0,1,.891,2.133A3.836,3.836,0,0,1-2.648-1.172,3.89,3.89,0,0,1-5.508,0a4.875,4.875,0,0,1-2.2-.539A4.969,4.969,0,0,1-9.492-2.016a2.122,2.122,0,0,0,1.359-.539,1.758,1.758,0,0,0,.656-1.43A2.862,2.862,0,0,1-6.633-6.094ZM9.211-16.359a.954.954,0,0,1,.281.7.954.954,0,0,1-.281.7L.258-6-2.508-8.766l8.953-8.953A1.09,1.09,0,0,1,7.172-18a1.09,1.09,0,0,1,.727.281Z" transform="translate(9.492 18)" fill="#0f4064"></path></svg>