<svg xmlns="http://www.w3.org/2000/svg" width="14.016" height="19.969" viewBox="0 0 14.016 19.969"><path d="M-4.992-16.922A6.773,6.773,0,0,1-.023-18.984a6.812,6.812,0,0,1,4.969,2.039A6.7,6.7,0,0,1,7.008-12a9.558,9.558,0,0,1-.727,3.352A19.44,19.44,0,0,1,4.523-5.133Q3.492-3.516,2.461-2.086T.727.188l-.75.8Q-.3.7-.773.141t-1.664-2.18Q-3.633-3.656-4.57-5.18A21.43,21.43,0,0,1-6.258-8.625,9.484,9.484,0,0,1-7.008-12,6.7,6.7,0,0,1-4.992-16.922Zm3.188,6.7a2.516,2.516,0,0,0,1.781.7,2.473,2.473,0,0,0,1.781-.727A2.357,2.357,0,0,0,2.508-12a2.357,2.357,0,0,0-.75-1.758,2.473,2.473,0,0,0-1.781-.727,2.394,2.394,0,0,0-1.758.727A2.394,2.394,0,0,0-2.508-12,2.516,2.516,0,0,0-1.8-10.219Z" transform="translate(7.008 18.984)" fill="#0f4064"></path></svg>