<svg xmlns="http://www.w3.org/2000/svg" width="22.045" height="21.924" viewBox="0 0 22.045 21.924"><path d="M10.734-2.016a.835.835,0,0,1,.281.68.869.869,0,0,1-.375.727l-2.3,2.3a1.008,1.008,0,0,1-.727.328.865.865,0,0,1-.68-.328L-2.156-7.406a6.117,6.117,0,0,1-3.633.3,6.467,6.467,0,0,1-3.3-1.8,6.733,6.733,0,0,1-1.828-3.539,5.911,5.911,0,0,1,.563-3.867L-5.953-12l3-3-4.312-4.312A6.3,6.3,0,0,1-3.422-19.8,6.6,6.6,0,0,1,.141-18a6.467,6.467,0,0,1,1.8,3.3,5.944,5.944,0,0,1-.3,3.586Z" transform="translate(11.029 19.908)" fill="#0f4064"></path></svg>