<svg xmlns="http://www.w3.org/2000/svg" xmlns:xlink="http://www.w3.org/1999/xlink" height="21" viewBox="0 0 74 21" width="74"><clipPath id="a"><path d="m1054 95h74v21h-74z"></path></clipPath><g clip-path="url(#a)" transform="translate(-1054 -95)"><g fill="#0f4064" transform="translate(1054 95)"><path d="m26.429.839v19.47h4.233v-8.324c0-2.116 1.185-3.753 3.189-3.753 1.524 0 2.257.9 2.257 2.483v9.594h4.233v-9.9c0-3.612-2.286-5.39-5.333-5.39a5.308 5.308 0 0 0 -4.346 2.03v-6.21zm22.971 19.81c4.346 0 6.829-2.061 6.829-5.9v-9.4h-4.235v9.538a2.591 2.591 0 1 1 -5.168 0v-9.538h-4.226v9.4c0 3.839 2.483 5.9 6.8 5.9zm9.226-19.81v19.47h3.894v-2.144a5.214 5.214 0 0 0 4.8 2.484c3.443 0 6.264-2.2 6.264-7.816s-2.822-7.816-6.264-7.816a5.365 5.365 0 0 0 -4.458 2v-6.18zm7.421 16.649c-1.834 0-3.273-1.129-3.273-4.656s1.439-4.656 3.273-4.656c2.088 0 3.22 1.273 3.22 4.656 0 3.417-1.16 4.656-3.22 4.656z"></path><path d="m6.5 13a6.5 6.5 0 1 0 -6.5-6.5 6.5 6.5 0 0 0 6.5 6.5z" opacity=".811"></path><path d="m13.5 13a6.5 6.5 0 1 0 -6.5-6.5 6.5 6.5 0 0 0 6.5 6.5z" opacity=".316"></path></g></g></svg>