<svg xmlns="http://www.w3.org/2000/svg" width="46.925" height="55.853" viewBox="0 0 46.925 55.853"><path d="M-11.1-18.125c-.65.45-4.075,1.637-4.075-2.375v-13h-4.087v12.825c0,9.363,10.025,6.388,12.237,4.875V-33.5H-11.1ZM-23.5-46.647v27.612c0,12.962,9.363,16.9,23.462,23.013C14.012-2.135,23.425-6.047,23.425-19.035V-46.647C8.887-54.347-11.8-52.847-23.5-46.647ZM21.262-19.035c0,10.825-6.65,14.2-21.3,20.662C-14.725-4.848-21.35-8.21-21.35-19.035v-15.8C-8.563-46.56,7.6-47.335,21.262-46.06ZM-4.938-32.46v26.6H-.85v-8.588c3.05.912,8.963-.325,8.963-9.812C8.112-36.435-1.975-34.375-4.938-32.46ZM-.85-17.8V-30.335c1.05-.525,4.8-1.588,4.8,6.162C3.95-15.685-.6-17.7-.85-17.8ZM9.037-28.6c.013,5.912,6.45,5.312,6.525,8.8.075,2.937-3.8,2.875-6.35.612v3.763c4.525,2.687,10.237,1.012,10.4-4.187.212-6.437-6.763-5.825-6.675-9.15.075-2.537,3.825-2.562,6.062-.275v-3.55C15.437-35.335,9.012-33.735,9.037-28.6Z" transform="translate(23.5 51.875)" fill="#285f60"/></svg>