<svg xmlns="http://www.w3.org/2000/svg" width="79.989" height="26.479" viewBox="0 0 79.989 26.479"><path d="M-21.938-12l4.787.1A33.281,33.281,0,0,1-21.938-14Zm7.213-.662V-12l-2.425.1c4.562,1.562,8.738,1.775,11.837.9A26.761,26.761,0,0,1-14.725-12.662Zm51.112-14.4A3.614,3.614,0,0,0,40-30.675c0-2-1.613-3.062-3.613-3.062s-3.612,1.075-3.612,3.062A3.614,3.614,0,0,0,36.387-27.062ZM32.762-12H40V-25.812H32.762ZM23.55-12h7.237V-36.412L23.55-33ZM19.675-26.925c-2.275-2.275-6.3-2.137-6.3-2.137s-4.037-.137-6.3,2.137-2.1,4.238-2.1,6.575-.175,4.287,2.1,6.562,6.3,2.137,6.3,2.137,4.037.138,6.3-2.137,2.1-4.225,2.1-6.562S21.937-24.662,19.675-26.925ZM14.7-17.937c0,.45-.225,1.562-1.337,1.562s-1.338-1.113-1.338-1.562v-5.05a1.313,1.313,0,0,1,1.338-1.362A1.3,1.3,0,0,1,14.7-22.987ZM1.425-26.925c-2.275-2.275-6.3-2.137-6.3-2.137s-4.025-.137-6.3,2.137a7.512,7.512,0,0,0-.662.75A69.341,69.341,0,0,0-24.6-33.812V-36.4l-2.812,1.325c-6.8-2.763-11.125-2.275-12.162.012,0,0-3.113,4.1,7.725,13.85V-12h7.237v-3.575c-.812-.525-1.625-1.088-2.425-1.7-1.85-1.4-3.425-2.7-4.8-3.925v-3.875a60.692,60.692,0,0,0,6.675,6.287l.562.45v-3.725c0-.863.213-2.275,1.35-2.275s1.325.863,1.325,1.875v6.088a33.328,33.328,0,0,0,7.213,3.7V-24.412c0-2.338-1.675-4.675-5.075-4.675A5.528,5.528,0,0,0-24.6-26.35v-6.787A104.156,104.156,0,0,1-12.113-25.85c-1.275,1.825-1.162,3.512-1.162,5.463,0,2.337-.175,4.287,2.1,6.562s6.3,2.137,6.3,2.137,4.037.137,6.3-2.137,2.087-4.225,2.087-6.562C3.512-22.7,3.7-24.662,1.425-26.925ZM-31.85-33v7.912c-6.088-6.812-4.863-9.5-4.4-9.887,1.687-1.425,4.687-1,8.05.262ZM-3.538-17.937c0,.45-.225,1.562-1.338,1.562s-1.338-1.113-1.338-1.562v-5.05A1.313,1.313,0,0,1-4.875-24.35a1.3,1.3,0,0,1,1.338,1.362Z" transform="translate(39.989 36.967)" fill="#285f60"/></svg>