<svg xmlns="http://www.w3.org/2000/svg" width="80" height="23.9" viewBox="0 0 80 23.9"><path d="M33.25-20.437l6.662-7.488h-7.8l-2.713,3.1-2.812-3.1H11.75v-2h7.012v-6.012H-.138V-26.5H-.2a5.472,5.472,0,0,0-4.425-1.85,7.471,7.471,0,0,0-7.162,5.612c-2.25-7.425-12.175-7.2-15.238-1.75v-3.025h-6.85v-3.275h7.5v-5.138H-40v23.05h6.125v-9.687h6.113a8.931,8.931,0,0,0-.288,2.275c0,9.137,12.825,11.425,16.275,2.963h-5.25A3.155,3.155,0,0,1-22.75-19.15h10.687A7.768,7.768,0,0,0-4.55-12.037,5.232,5.232,0,0,0-.188-14.363h.063v1.488H26.4L29.162-16l2.787,3.125H40Zm-55.837-2.075a2.952,2.952,0,0,1,5.812,0ZM-3.413-16.4c-4.325,0-4.25-7.85,0-7.85C.662-24.25.9-16.4-3.413-16.4Zm20.975,2.388H5.762V-34.825H17.637v3.775H10.625v4.238h6.937V-23.3H10.55v5.588h7.012Zm-5.738-4.975v-3.05h7.013v-5.5l6.338,7.125-6.338,7.125v-5.7ZM29.15-17.7l-3.263,3.687H21.125l5.7-6.4-5.7-6.4h4.963l3.325,3.662,3.2-3.662h4.812L31.75-20.437l5.75,6.425H32.437Z" transform="translate(40 35.937)" fill="#285f60"/></svg>