<svg xmlns="http://www.w3.org/2000/svg" width="80" height="11.325" viewBox="0 0 80 11.325"><path d="M-10.25-18.35h7.338l2.787-3.775H-7.463ZM-40-20.637v.8h10.225l.588-.8Zm21.612-1.488c-1.088,0-.75-.45-.575-.687.35-.475.95-1.3,1.3-1.762s.35-.738-.35-.738h-6.375l-5.138,6.975h12.513a8.865,8.865,0,0,0,7.15-3.787ZM21.3-22.987l4.912-6.675H18.437l-4.912,6.675Zm-49.387.863H-40v.8h11.325Zm13.875-3.325c-.35.475-.937,1.3-1.287,1.775-.175.25-.512.687.575.687h5.7s.912-1.25,1.687-2.3c1.05-1.425.088-4.375-3.65-4.375H-25.925l-2.55,3.475H-14.55C-13.85-26.187-13.863-25.912-14.213-25.45ZM-40-18.35h9.137l.588-.8H-40Zm40.375,0H7.712L10.5-22.125H3.162C3.15-22.125.375-18.35.375-18.35Zm27.75.012H40v-.8H28.712Zm2.787-3.787-.588.8H40v-.8Zm-1.687,2.287H40v-.8H29.812ZM8.7-29.662,5.887-25.837H2.612l2.812-3.825H-1.913l-4.912,6.675h17.95l4.912-6.675Zm4.187,7.537s-.537.738-.8,1.088c-.925,1.25-.113,2.7,2.9,2.7H26.775l2.787-3.787Z" transform="translate(40 29.662)" fill="#285f60"/></svg>