<svg xmlns="http://www.w3.org/2000/svg" width="80" height="35.337" viewBox="0 0 80 35.337"><path d="M40-23.187c0-4.787-4.863-9.037-12.363-11.675,4.013,2.7,6.4,6.075,6.4,9.75,0,8.775-13.625,15.888-30.437,15.888Q2.119-9.225.675-9.3a63.166,63.166,0,0,0,8.887.625C26.375-8.675,40-15.175,40-23.187Zm-74.037-4.325c-.013-8.775,13.6-15.913,30.412-15.95.988,0,1.95.025,2.912.063a63.16,63.16,0,0,0-8.875-.612C-26.4-43.962-40.012-37.437-40-29.425c.012,4.788,4.887,9.038,12.412,11.663C-31.625-20.45-34.025-23.837-34.037-27.512Zm7.525,4.987a4.927,4.927,0,0,0,3.662,1.65c2.237,0,3.55-1.437,3.55-3.137,0-3.5-5.025-3.138-5.025-4.963,0-.675.662-1.138,1.562-1.138.712,0,1.412.325,1.412.825v.487h1.775v-.987c0-1.513-1.925-2.1-3.175-2.1-2.062,0-3.562,1.275-3.562,3.012,0,3.325,5.025,3.175,5.025,4.988,0,.825-.725,1.262-1.537,1.262a3.877,3.877,0,0,1-2.588-1.262Zm15.1-9.2v6.8A2.062,2.062,0,0,1-13.638-22.7a2.058,2.058,0,0,1-2.225-2.213v-6.812h-1.975v6.875a3.888,3.888,0,0,0,4.213,3.987A3.871,3.871,0,0,0-9.45-24.85v-6.875Zm4.3,10.675h1.975v-3.687H-3.2A3.305,3.305,0,0,0,.2-28.25a3.275,3.275,0,0,0-3.4-3.475H-8.088v1.675h.975Zm1.975-5.375v-3.637h1.612a1.626,1.626,0,0,1,1.713,1.8,1.659,1.659,0,0,1-1.75,1.837ZM1.987-21.05H3.962v-3.687H5.9A3.305,3.305,0,0,0,9.3-28.25a3.275,3.275,0,0,0-3.4-3.475H1.012v1.675h.975ZM3.95-26.425v-3.637H5.562a1.626,1.626,0,0,1,1.713,1.8,1.653,1.653,0,0,1-1.75,1.837Zm7.138,4.35c0,.725.3,1.025,1.025,1.025h4.7c.725,0,1.025-.3,1.025-1.025V-23.7H16.05v.65a.3.3,0,0,1-.325.325H13.4a.3.3,0,0,1-.325-.325V-30.7c0-.713-.3-1.025-1.025-1.025H10.125v1.675h.65a.3.3,0,0,1,.325.325v7.65Zm7.925,0c0,.725.3,1.025,1.025,1.025h4.838c.713,0,1.025-.3,1.025-1.025V-23.7H24.112v.65a.3.3,0,0,1-.325.325H21.325A.3.3,0,0,1,21-23.05v-2.537h3.463v-1.675H21v-2.8h2.4a.3.3,0,0,1,.325.325v.65H25.5v-1.625c0-.713-.312-1.025-1.025-1.025h-6.45v1.675H19v7.988Zm7.363-9.5v.737h.2v-.737h.338v-.15h-.875v.15Zm.713-.15v.887h.188v-.713l.287.713h.162l.287-.713v.713H28.2v-.887h-.287l-.262.637-.263-.637Z" transform="translate(40 44.012)" fill="#0f4064"></path></svg>