<svg xmlns="http://www.w3.org/2000/svg" xmlns:xlink="http://www.w3.org/1999/xlink" width="77" height="22" viewBox="0 0 77 22">
  <defs>
    <clipPath id="clip-path">
      <rect id="Rectangle_8088" data-name="Rectangle 8088" width="77" height="22" transform="translate(974 326)" fill="none"/>
    </clipPath>
  </defs>
  <g id="logo-1" transform="translate(-974 -326)" clip-path="url(#clip-path)">
    <g id="Group_37842" data-name="Group 37842" transform="translate(745 465)">
      <path id="Path_133629" data-name="Path 133629" d="M-23.838-20.01V0h4.35V-8.555c0-2.175,1.218-3.857,3.277-3.857,1.566,0,2.32.928,2.32,2.552V0h4.35V-10.179c0-3.712-2.349-5.539-5.481-5.539a5.455,5.455,0,0,0-4.466,2.088v-6.38ZM-.232.348c4.466,0,7.018-2.117,7.018-6.061V-15.37H2.436v9.8a2.482,2.482,0,0,1-.719,1.95A2.482,2.482,0,0,1-.232-2.9a2.46,2.46,0,0,1-1.937-.723,2.46,2.46,0,0,1-.7-1.945v-9.8h-4.35v9.657C-7.221-1.769-4.669.348-.232.348ZM9.251-20.01V0h4V-2.2A5.358,5.358,0,0,0,18.183.348c3.538,0,6.438-2.262,6.438-8.033s-2.9-8.033-6.438-8.033A5.514,5.514,0,0,0,13.6-13.659V-20.01ZM16.878-2.9c-1.885,0-3.364-1.16-3.364-4.785s1.479-4.785,3.364-4.785c2.146,0,3.306,1.305,3.306,4.785C20.184-4.176,19-2.9,16.878-2.9Z" transform="translate(280 -118)" fill="#fff"/>
      <circle id="Ellipse_9558" data-name="Ellipse 9558" cx="6.5" cy="6.5" r="6.5" transform="translate(231 -137)" fill="#557dff"/>
      <circle id="Ellipse_9559" data-name="Ellipse 9559" cx="6.5" cy="6.5" r="6.5" transform="translate(238 -137)" fill="#ff8b60" opacity="0.682"/>
    </g>
  </g>
</svg>
