<svg xmlns="http://www.w3.org/2000/svg" width="268.946" height="75.485" viewBox="0 0 268.946 75.485"><g transform="translate(-229.269 138.531)"><path d="M-23.838-20.01V51.243h15.49V20.78c0-7.745,4.337-13.734,11.669-13.734,5.576,0,8.261,3.3,8.261,9.087v35.11h15.49V15c0-13.218-8.364-19.724-19.517-19.724a19.425,19.425,0,0,0-15.9,7.435V-20.01ZM60.22,52.482c15.9,0,24.99-7.538,24.99-21.582V-3.488H69.72v34.9a8.838,8.838,0,0,1-9.5,9.508,8.76,8.76,0,0,1-9.4-9.5V-3.48H35.333V30.907C35.333,44.944,44.42,52.482,60.22,52.482ZM93.988-20.01V51.243h14.243V43.409a19.079,19.079,0,0,0,17.562,9.073c12.6,0,22.925-8.055,22.925-28.6s-10.326-28.6-22.925-28.6a19.635,19.635,0,0,0-16.319,7.332V-20.01Zm27.159,60.926c-6.712,0-11.979-4.131-11.979-17.039s5.267-17.039,11.979-17.039c7.642,0,11.772,4.647,11.772,17.039C132.919,36.373,128.685,40.916,121.146,40.916Z" transform="translate(349.496 -115.573)" fill="#003365"/><circle cx="23" cy="23" r="23" transform="translate(229.269 -138.531)" fill="#597ffb"/><circle cx="23" cy="23" r="23" transform="translate(254.269 -138.531)" fill="#ed6a04" opacity="0.316"/></g></svg>