<svg xmlns="http://www.w3.org/2000/svg" xmlns:xlink="http://www.w3.org/1999/xlink" width="385.731" height="287.453" viewBox="0 0 385.731 287.453"><defs><linearGradient id="a" x1="0.5" x2="0.409" y2="0.82" gradientUnits="objectBoundingBox"><stop offset="0" stop-color="#e5e6ef"/><stop offset="1" stop-color="#fff"/></linearGradient><clipPath id="b"><path d="M1.911.235,75.552,0,74.179,21.455,0,21.166Z" transform="translate(0 0)" fill="none"/></clipPath></defs><g transform="translate(0 -54.953)"><rect width="385.731" height="0.193" transform="translate(0 307.564)" fill="#ebebeb"/><rect width="16.361" height="0.193" transform="translate(40.47 314.911)" fill="#ebebeb"/><rect width="65.552" height="0.193" transform="translate(132.028 312.818)" fill="#ebebeb"/><rect width="29.399" height="0.193" transform="translate(52.202 322.075)" fill="#ebebeb"/><rect width="33.322" height="0.193" transform="translate(313.759 320.779)" fill="#ebebeb"/><rect width="9.237" height="0.193" transform="translate(302.005 320.779)" fill="#ebebeb"/><rect width="17.744" height="0.193" transform="translate(268.383 317.522)" fill="#ebebeb"/><rect width="37.373" height="0.193" transform="translate(222.095 317.522)" fill="#ebebeb"/><path d="M191.579,273.158H42.611a4.409,4.409,0,0,1-4.4-4.4V59.356a4.408,4.408,0,0,1,4.4-4.4H191.58a4.408,4.408,0,0,1,4.4,4.4v209.4A4.409,4.409,0,0,1,191.579,273.158ZM42.611,55.144a4.214,4.214,0,0,0-4.211,4.21v209.4a4.215,4.215,0,0,0,4.211,4.211H191.58a4.214,4.214,0,0,0,4.21-4.211V59.356a4.214,4.214,0,0,0-4.21-4.21Z" transform="translate(-8.732)" fill="#ebebeb"/><path d="M407.875,273.158H258.906a4.408,4.408,0,0,1-4.4-4.4V59.356a4.407,4.407,0,0,1,4.4-4.4H407.875a4.408,4.408,0,0,1,4.4,4.4v209.4A4.409,4.409,0,0,1,407.875,273.158ZM258.907,55.144a4.215,4.215,0,0,0-4.21,4.21v209.4a4.214,4.214,0,0,0,4.21,4.211H407.876a4.215,4.215,0,0,0,4.211-4.211V59.356a4.215,4.215,0,0,0-4.213-4.212Z" transform="translate(-58.164)" fill="#ebebeb"/><rect width="11.879" height="91.433" transform="translate(69.761 307.564) rotate(180)" fill="#f0f0f0"/><rect width="103.982" height="91.433" transform="translate(69.761 216.132)" fill="#f5f5f5"/><rect width="91.295" height="48.902" transform="translate(83.397 250.636)" fill="#fafafa"/><rect width="91.295" height="16.1" transform="translate(83.397 229.347)" fill="#fafafa"/><rect width="0.815" height="48.902" transform="translate(83.396 299.537) rotate(180)" fill="#e6e6e6" opacity="0.7" style="mix-blend-mode:multiply;isolation:isolate"/><rect width="0.815" height="16.1" transform="translate(83.396 245.446) rotate(180)" fill="#e6e6e6" opacity="0.7" style="mix-blend-mode:multiply;isolation:isolate"/><rect width="116.124" height="2.068" transform="translate(174.006 222.057) rotate(180)" fill="#e6e6e6" opacity="0.7" style="mix-blend-mode:multiply;isolation:isolate"/><rect width="13.267" height="5.98" transform="translate(69.761 220.86) rotate(180)" fill="#f0f0f0"/><rect width="105.37" height="5.98" transform="translate(69.761 214.881)" fill="#f5f5f5"/><path d="M130.506,233.432a6.276,6.276,0,0,1-1.12-3.214,10.274,10.274,0,0,1,.3-3.472,16.108,16.108,0,0,1,3.167-6.095,27.824,27.824,0,0,1,2.309-2.48c.427-.363.849-.731,1.284-1.08a13.559,13.559,0,0,1,1.326-1.018,32.028,32.028,0,0,1,2.828-1.756c1-.489,1.99-.981,3.033-1.369-.728.862-1.511,1.62-2.283,2.381s-1.5,1.551-2.273,2.282-1.447,1.543-2.193,2.284c-.357.386-.683.788-1.025,1.179a14.082,14.082,0,0,0-1,1.184,23.71,23.71,0,0,0-3.264,5.134,13.413,13.413,0,0,0-.954,2.884A8.751,8.751,0,0,0,130.506,233.432Z" transform="translate(-29.561 -36.108)" fill="#e6e6e6"/><path d="M103.78,230.376a8.477,8.477,0,0,0,.5-2.863,8.718,8.718,0,0,0-.1-1.35,9.916,9.916,0,0,0-.359-1.266,11.958,11.958,0,0,0-3.077-4.293c-.325-.323-.711-.6-1.061-.907a10.367,10.367,0,0,0-1.1-.889c-.79-.54-1.507-1.18-2.347-1.682q-.611-.4-1.216-.825c-.4-.289-.806-.577-1.234-.832-.833-.551-1.676-1.1-2.49-1.757a28.216,28.216,0,0,1,3.016.613,10.078,10.078,0,0,1,1.466.469q.721.272,1.436.568l.715.3c.231.112.457.248.686.37.457.249.906.517,1.359.779a10.208,10.208,0,0,1,1.294.911c.411.339.844.643,1.234,1.016a10.457,10.457,0,0,1,3.269,5.679,3.594,3.594,0,0,1,.077.849c0,.285.027.565,0,.844a7.245,7.245,0,0,1-.343,1.631,5.851,5.851,0,0,1-1.733,2.637Z" transform="translate(-20.866 -36.283)" fill="#e6e6e6"/><path d="M105.573,229.079a17.688,17.688,0,0,0,.146-6.216,16.522,16.522,0,0,0-1.951-5.542L103,216.047c-.285-.41-.606-.8-.9-1.206l-.444-.617-.515-.565c-.343-.377-.68-.766-1.015-1.157-.725-.735-1.485-1.457-2.224-2.23-.793-.707-1.6-1.416-2.366-2.237a31.794,31.794,0,0,1,3.086,1.2,31.53,31.53,0,0,1,2.842,1.752c.434.355.868.717,1.295,1.089l.64.559.569.64c.375.432.753.862,1.109,1.311l.926,1.466a13.156,13.156,0,0,1,1.724,6.686,10.47,10.47,0,0,1-2.149,6.336Z" transform="translate(-21.833 -34.985)" fill="#e6e6e6"/><path d="M127.352,228.535a30.125,30.125,0,0,1-3.883-6.26,40.6,40.6,0,0,1-2.537-6.93A34.45,34.45,0,0,1,119.864,208a20.873,20.873,0,0,1,1.121-7.329c.213,2.469.484,4.805.888,7.133.444,2.321.965,4.609,1.543,6.9.606,2.283,1.256,4.562,1.929,6.854S126.716,226.151,127.352,228.535Z" transform="translate(-27.392 -33.302)" fill="#e6e6e6"/><path d="M125.032,228.189a34.858,34.858,0,0,1-4.888-5.846,47.278,47.278,0,0,1-3.758-6.635,39.733,39.733,0,0,1-2.523-7.234,23.345,23.345,0,0,1-.552-7.646c.771,2.446,1.578,4.757,2.479,7.047.92,2.28,1.914,4.519,2.927,6.761,1.031,2.237,2.1,4.458,3.169,6.7S124.031,225.836,125.032,228.189Z" transform="translate(-25.873 -33.338)" fill="#e6e6e6"/><path d="M127.406,232.976a34.864,34.864,0,0,1-6.071-4.607,47.29,47.29,0,0,1-5.143-5.625,39.731,39.731,0,0,1-4.074-6.489,23.321,23.321,0,0,1-2.246-7.329c1.3,2.21,2.6,4.284,3.99,6.314,1.4,2.018,2.875,3.978,4.363,5.94,1.5,1.948,3.043,3.876,4.586,5.824S125.905,230.906,127.406,232.976Z" transform="translate(-25.11 -35.189)" fill="#e6e6e6"/><path d="M121.737,229.209a26.657,26.657,0,0,1-5.833-3.951,35.93,35.93,0,0,1-4.831-5.148,30.564,30.564,0,0,1-3.634-6.095,20.462,20.462,0,0,1-1.727-6.866c1.181,2.061,2.257,4.029,3.5,5.913s2.523,3.712,3.9,5.494,2.777,3.543,4.229,5.3S120.267,227.361,121.737,229.209Z" transform="translate(-24.16 -34.783)" fill="#e6e6e6"/><path d="M130.4,232.526a7.729,7.729,0,0,1-3.178-5.3,11.114,11.114,0,0,1,1-6.3l.322-.727.394-.679.826-1.329q.473-.617.972-1.2a11.563,11.563,0,0,1,1.025-1.143,26.421,26.421,0,0,1,2.3-1.988,27.3,27.3,0,0,1,2.577-1.6,29.7,29.7,0,0,1-1.676,2.481c-.569.8-1.08,1.62-1.644,2.387-.53.792-1,1.609-1.513,2.386l-.646,1.224-.335.6-.259.627a13.482,13.482,0,0,0-1.345,5.131A11.179,11.179,0,0,0,130.4,232.526Z" transform="translate(-29.053 -35.951)" fill="#e6e6e6"/><path d="M128.4,229.122a12.344,12.344,0,0,1-3.268-5.492,12.194,12.194,0,0,1-.095-6.64,11.328,11.328,0,0,1,1.355-3.1,12.1,12.1,0,0,1,2.111-2.564,13.9,13.9,0,0,1,5.534-3.179,41.725,41.725,0,0,0-4.03,4.525,16,16,0,0,0-1.5,2.416,12.521,12.521,0,0,0-1,2.577,15.135,15.135,0,0,0-.408,5.57,28.663,28.663,0,0,0,1.3,5.886Z" transform="translate(-28.48 -35.011)" fill="#e6e6e6"/><path d="M121.052,229.536l-12.069-11.587.484,11.363Z" transform="translate(-24.907 -37.251)" fill="#e6e6e6"/><path d="M132.229,231.374H100.158l4.2,23.826H128.03Z" transform="translate(-22.89 -40.319)" fill="#f5f5f5"/><path d="M112.194,231.374H100.159l4.2,23.826h6.324Z" transform="translate(-22.89 -40.319)" fill="#ebebeb"/><rect width="64.736" height="81.374" transform="translate(77.872 71.827)" fill="#f0f0f0"/><rect width="76.547" height="81.374" transform="translate(80.352 71.827)" fill="#f5f5f5"/><rect width="68.549" height="63.721" transform="translate(86.765 146.789) rotate(-90)" fill="#fff"/><path d="M342.557,322.344h-8.795l.359-129.227h8.795Z" transform="translate(-76.278 -31.576)" fill="#fff"/><ellipse cx="149.578" cy="8.735" rx="149.578" ry="8.735" transform="translate(43.287 324.935)" fill="#f5f5f5"/><path d="M337.045,300.009H246.613a9.929,9.929,0,0,1-9.99-10.569L247.038,99.57A11.34,11.34,0,0,1,258.189,89h90.433a9.928,9.928,0,0,1,9.99,10.569L348.2,289.439A11.336,11.336,0,0,1,337.045,300.009Z" transform="translate(-54.073 -7.781)" fill="#cdd6ea"/><path d="M331.579,300.009H246.613a9.929,9.929,0,0,1-9.99-10.569L247.038,99.57A11.34,11.34,0,0,1,258.189,89h84.966a9.929,9.929,0,0,1,9.99,10.569L342.73,289.439a11.34,11.34,0,0,1-11.151,10.571Z" transform="translate(-54.073 -7.781)" fill="url(#a)"/><path d="M294.62,167.982h-24.4A4.192,4.192,0,0,1,266,163.519h0a4.783,4.783,0,0,1,4.706-4.463h24.4a4.192,4.192,0,0,1,4.218,4.463h0A4.783,4.783,0,0,1,294.62,167.982Z" transform="translate(-60.79 -23.792)" fill="#fff"/><ellipse cx="8.257" cy="7.816" rx="8.257" ry="7.816" transform="translate(208.358 139.883) rotate(-44.214)" fill="#407bff"/><ellipse cx="8.257" cy="7.816" rx="8.257" ry="7.816" transform="translate(208.358 139.883) rotate(-44.214)" fill="#fafafa" opacity="0.3"/><path d="M266.161,242h24.4a4.783,4.783,0,0,0,4.706-4.463h0a4.192,4.192,0,0,0-4.218-4.463h-24.4a4.783,4.783,0,0,0-4.706,4.463h0A4.192,4.192,0,0,0,266.161,242Z" transform="translate(-59.863 -40.708)" fill="#fff"/><ellipse cx="8.257" cy="7.816" rx="8.257" ry="7.816" transform="translate(198.745 196.986) rotate(-44.212)" fill="#407bff"/><ellipse cx="8.257" cy="7.816" rx="8.257" ry="7.816" transform="translate(199 196.986) rotate(-44.212)" fill="#fafafa" opacity="0.7"/><path d="M288.529,279.012h-24.4a4.193,4.193,0,0,1-4.218-4.463h0a4.788,4.788,0,0,1,4.706-4.464h24.4a4.193,4.193,0,0,1,4.218,4.464h0a4.783,4.783,0,0,1-4.706,4.463Z" transform="translate(-59.398 -49.166)" fill="#fff"/><path d="M298.347,273.491a8.59,8.59,0,0,1-8.474,8.033,7.526,7.526,0,0,1-7.593-8.033,8.591,8.591,0,0,1,8.475-8.034,7.526,7.526,0,0,1,7.593,8.034Z" transform="translate(-83.262 -48.108)" fill="#407bff"/><path d="M268.191,204.992h24.4a4.783,4.783,0,0,0,4.706-4.463h0a4.192,4.192,0,0,0-4.218-4.463h-24.4a4.783,4.783,0,0,0-4.706,4.463h0a4.192,4.192,0,0,0,4.216,4.463Z" transform="translate(-60.327 -32.25)" fill="#fff"/><path d="M263.97,199.471a7.526,7.526,0,0,0,7.594,8.034,8.591,8.591,0,0,0,8.472-8.034,7.526,7.526,0,0,0-7.594-8.034A8.591,8.591,0,0,0,263.97,199.471Z" transform="translate(-60.323 -31.192)" fill="#407bff"/><path d="M263.97,199.471a7.526,7.526,0,0,0,7.594,8.034,8.591,8.591,0,0,0,8.472-8.034,7.526,7.526,0,0,0-7.594-8.034A8.591,8.591,0,0,0,263.97,199.471Z" transform="translate(-60.323 -31.192)" fill="#fafafa" opacity="0.7"/><path d="M350.507,273.077h-31.6a1.676,1.676,0,0,1-1.687-1.785h0a1.914,1.914,0,0,1,1.883-1.785h31.6a1.677,1.677,0,0,1,1.687,1.785h0A1.915,1.915,0,0,1,350.507,273.077Z" transform="translate(-72.497 -49.034)" fill="#fff"/><path d="M334.08,281.177H318.467a1.677,1.677,0,0,1-1.687-1.785h0a1.916,1.916,0,0,1,1.883-1.786h15.612a1.678,1.678,0,0,1,1.688,1.786h0a1.915,1.915,0,0,1-1.883,1.785Z" transform="translate(-72.396 -50.885)" fill="#fff"/><path d="M360.919,166.577H324.755a1.915,1.915,0,0,0-1.884,1.785h0a1.677,1.677,0,0,0,1.688,1.785h36.164a1.914,1.914,0,0,0,1.883-1.785h0a1.676,1.676,0,0,0-1.687-1.785Z" transform="translate(-73.788 -25.51)" fill="#fff"/><path d="M349.658,158.477H325.2a1.915,1.915,0,0,0-1.883,1.785h0A1.676,1.676,0,0,0,325,162.043h24.459a1.914,1.914,0,0,0,1.883-1.785h0a1.677,1.677,0,0,0-1.684-1.781Z" transform="translate(-73.889 -23.659)" fill="#fff"/><path d="M341.521,199.057H322.973a1.677,1.677,0,0,1-1.688-1.785h0a1.916,1.916,0,0,1,1.883-1.785h18.549a1.677,1.677,0,0,1,1.687,1.785h0a1.915,1.915,0,0,1-1.883,1.785Z" transform="translate(-73.425 -32.117)" fill="#fff"/><path d="M366.614,199.057H355.689a1.677,1.677,0,0,1-1.69-1.786h0a1.916,1.916,0,0,1,1.883-1.785h10.925a1.677,1.677,0,0,1,1.687,1.785h0a1.914,1.914,0,0,1-1.881,1.786Z" transform="translate(-80.902 -32.117)" fill="#fff"/><path d="M346.987,207.157H322.528a1.676,1.676,0,0,1-1.687-1.785h0a1.914,1.914,0,0,1,1.883-1.785h24.459a1.676,1.676,0,0,1,1.687,1.785h0a1.914,1.914,0,0,1-1.883,1.785Z" transform="translate(-73.324 -33.969)" fill="#fff"/><path d="M301.963,313.22H260.321a2.345,2.345,0,0,1-2.361-2.5h0a2.678,2.678,0,0,1,2.635-2.5h41.64a2.346,2.346,0,0,1,2.361,2.5h0A2.678,2.678,0,0,1,301.963,313.22Z" transform="translate(-58.953 -57.883)" fill="#fff"/><path d="M354.868,313.22H329.3a2.345,2.345,0,0,1-2.36-2.5h0a2.678,2.678,0,0,1,2.634-2.5h25.57a2.346,2.346,0,0,1,2.361,2.5h0A2.678,2.678,0,0,1,354.868,313.22Z" transform="translate(-74.717 -57.883)" fill="#fff"/><path d="M291.4,324.545H259.7a2.345,2.345,0,0,1-2.36-2.5h0a2.678,2.678,0,0,1,2.634-2.5H291.68a2.346,2.346,0,0,1,2.361,2.5h0A2.678,2.678,0,0,1,291.4,324.545Z" transform="translate(-58.811 -60.471)" fill="#fff"/><path d="M325.692,335.875H259.078a2.345,2.345,0,0,1-2.361-2.5h0a2.679,2.679,0,0,1,2.635-2.5h66.614a2.345,2.345,0,0,1,2.36,2.5h0A2.677,2.677,0,0,1,325.692,335.875Z" transform="translate(-58.669 -63.06)" fill="#fff"/><path d="M331.4,240.6H320.694a1.915,1.915,0,0,0-1.883,1.786h0a1.677,1.677,0,0,0,1.688,1.782H331.2a1.915,1.915,0,0,0,1.883-1.785h0A1.677,1.677,0,0,0,331.4,240.6Z" transform="translate(-72.86 -42.428)" fill="#fff"/><path d="M355.656,240.6H343.241a1.915,1.915,0,0,0-1.883,1.786h0a1.677,1.677,0,0,0,1.687,1.785h12.413a1.916,1.916,0,0,0,1.883-1.785h0a1.678,1.678,0,0,0-1.685-1.786Z" transform="translate(-78.013 -42.428)" fill="#fff"/><path d="M345.6,232.5H321.141a1.914,1.914,0,0,0-1.883,1.785h0a1.676,1.676,0,0,0,1.687,1.785H345.4a1.914,1.914,0,0,0,1.883-1.785h0A1.676,1.676,0,0,0,345.6,232.5Z" transform="translate(-72.962 -40.576)" fill="#fff"/><path d="M171.672,171.41c-2.521,2.1-5.126,4.367-7.526,6.654-1.2,1.151-2.38,2.321-3.462,3.515a29.883,29.883,0,0,0-2.887,3.62l-.146.213-.077.123a2.508,2.508,0,0,0-.161.309,8.073,8.073,0,0,0-.313.853,16.1,16.1,0,0,0-.479,2.143,44.834,44.834,0,0,0-.467,4.856c-.162,3.337-.16,6.811-.1,10.216l-3.607.54a65.875,65.875,0,0,1-1.852-10.642,40.148,40.148,0,0,1-.128-5.6,22.569,22.569,0,0,1,.36-3.022,12.75,12.75,0,0,1,.441-1.651,9.009,9.009,0,0,1,.353-.89l.22-.463c.072-.143.127-.231.192-.348a31.157,31.157,0,0,1,3.288-4.82,54.873,54.873,0,0,1,3.683-4.136,79.466,79.466,0,0,1,8.116-7.26Z" transform="translate(-34.378 -25.291)" fill="#b55b52"/><path d="M173.314,160.95c-3.952,2.343-9.929,8.332-9.929,8.332l7.329,8.795s10.391-6.23,11.649-9.669C184.484,162.626,177.046,158.737,173.314,160.95Z" transform="translate(-37.34 -24.08)" fill="#ffc091"/><path d="M156.314,213.493l.891,5.227-4.85-.7s-.994-3.549,1.515-4.773Z" transform="translate(-34.775 -36.176)" fill="#b55b52"/><path d="M155.09,223.312l-4.37-1.358,1.305-2.523,4.85.7Z" transform="translate(-34.445 -37.59)" fill="#b55b52"/><path d="M214.318,136.942c.008.531.3.965.649.97s.629-.421.622-.952-.3-.965-.649-.97S214.311,136.411,214.318,136.942Z" transform="translate(-48.98 -18.52)" fill="#263238"/><path d="M214.924,135.921l1.284-.35S215.56,136.558,214.924,135.921Z" transform="translate(-49.118 -18.424)" fill="#263238"/><path d="M214.913,137.9a14.626,14.626,0,0,0,1.96,3.414,2.305,2.305,0,0,1-1.908.329Z" transform="translate(-49.116 -18.957)" fill="#a02724"/><path d="M214.317,132.413a.313.313,0,0,1-.154-.01,2.6,2.6,0,0,0-2.294.267.313.313,0,1,1-.38-.5,3.226,3.226,0,0,1,2.868-.365.313.313,0,0,1-.042.606Z" transform="translate(-48.305 -17.522)" fill="#263238"/><path d="M192.762,144.561c.354,3.986-.981,10.523-3.993,12.747,0,0,2.27,4.2,9.54,5.169,7.994,1.073,4.238-3.427,4.238-3.427-4.253-1.62-3.8-4.818-2.719-7.733Z" transform="translate(-43.141 -20.479)" fill="#b55b52"/><path d="M211.726,167.143c3.806,1.041,7.8,2.034,11.726,2.915,1.973.431,3.951.818,5.925,1.2,1.976.345,3.954.694,5.925.947l.74.1.5.051a11.034,11.034,0,0,0,1.164-.015,19.464,19.464,0,0,0,2.662-.362,54.41,54.41,0,0,0,5.656-1.483c3.8-1.193,7.665-2.623,11.432-4.107l1.713,3.22a81.7,81.7,0,0,1-11.164,6.116,49.213,49.213,0,0,1-6.153,2.3,25.771,25.771,0,0,1-3.432.771,17.9,17.9,0,0,1-1.929.161c-.34,0-.725-.01-1.045-.024l-.8-.057A101.924,101.924,0,0,1,222,177.192a118.525,118.525,0,0,1-12.371-3Z" transform="translate(-47.907 -25.468)" fill="#b55b52"/><path d="M270.37,166.977l1.117-3.792,4.11,1.547s-.942,5.693-4.465,4.12Z" transform="translate(-61.79 -24.735)" fill="#b55b52"/><path d="M274.2,159.93l4.2.473-2.469,3.586-4.11-1.543Z" transform="translate(-62.122 -23.991)" fill="#b55b52"/><path d="M178.642,402.376l6.613.488,1.964-15.185-6.612-.488Z" transform="translate(-40.827 -75.929)" fill="#b55b52"/><path d="M115.444,366.154l4.488,4.981,12.541-8.668-4.488-4.981Z" transform="translate(-26.383 -69.141)" fill="#b55b52"/><path d="M125.022,377.993a.822.822,0,0,1-.238-.041c-.8-.259-1.351-1.746-1.606-2.608a.154.154,0,0,1,.224-.183c.242.129,2.367,1.283,2.438,2.13a.534.534,0,0,1-.225.481.945.945,0,0,1-.593.221Zm-1.426-2.365c.381,1.139.849,1.886,1.284,2.027a.568.568,0,0,0,.54-.13.222.222,0,0,0,.1-.207C125.491,376.87,124.434,376.112,123.6,375.628Z" transform="translate(-28.149 -73.175)" fill="#407bff"/><path d="M125.276,375.731a4.731,4.731,0,0,1-2.028-.5.154.154,0,0,1,.005-.27c.068-.039,1.7-.944,2.6-.632a.839.839,0,0,1,.524.488.545.545,0,0,1-.119.68,1.532,1.532,0,0,1-.983.232Zm-1.6-.633a3.328,3.328,0,0,0,2.383.163c.058-.049.113-.13.033-.322a.532.532,0,0,0-.336-.309,3.493,3.493,0,0,0-2.082.468Z" transform="translate(-28.149 -72.975)" fill="#407bff"/><path d="M120.774,372.2l-3.7-6.571a.527.527,0,0,0-.651-.248l-5.469,2.1a1.06,1.06,0,0,0-.481,1.507c1.33,2.27,2.083,3.3,3.713,6.189,1,1.774,2.546,5.652,3.732,8.209,1.157,2.5,3.7,1.554,3.432.386a23.217,23.217,0,0,1-.37-10.4A1.782,1.782,0,0,0,120.774,372.2Z" transform="translate(-25.213 -70.937)" fill="#263238"/><path d="M190.281,407.288a11.165,11.165,0,0,1-2.077-.237.154.154,0,0,1-.041-.293c.3-.154,2.986-1.506,3.78-1.054a.494.494,0,0,1,.254.417.888.888,0,0,1-.3.761A2.526,2.526,0,0,1,190.281,407.288Zm-1.552-.463c1.459.242,2.546.178,2.957-.182a.579.579,0,0,0,.2-.505.181.181,0,0,0-.095-.165c-.437-.241-1.959.335-3.058.856Z" transform="translate(-42.982 -80.139)" fill="#407bff"/><path d="M188.237,406.594a.157.157,0,0,1-.156-.174c.012-.118.318-2.822,1.8-2.822a1.236,1.236,0,0,1,.129.007c.428.043.551.26.579.434.12.748-1.48,2.181-2.287,2.54A.155.155,0,0,1,188.237,406.594Zm1.648-2.682c-.954,0-1.33,1.571-1.447,2.243.824-.491,1.912-1.62,1.841-2.066-.006-.035-.024-.143-.3-.172q-.045,0-.091,0Z" transform="translate(-42.984 -79.679)" fill="#407bff"/><path d="M185.088,406.285h-7.432a.54.54,0,0,0-.54.452l-1,5.881a1.032,1.032,0,0,0,1.031,1.176c2.592-.045,3.845-.2,7.114-.2,2.011,0,6.165.209,8.942.209,2.716,0,3-2.746,1.845-2.995-5.156-1.116-7.157-2.653-8.866-4.12A1.686,1.686,0,0,0,185.088,406.285Z" transform="translate(-40.247 -80.293)" fill="#263238"/><path d="M187.5,387.683l-1.09,8.439-6.537-1.095,1.011-7.832Z" transform="translate(-41.108 -75.93)" opacity="0.2"/><path d="M130.109,357.487l4.491,4.983-5.19,3.584-4.651-4.871Z" transform="translate(-28.512 -69.141)" opacity="0.2"/><path d="M174.3,200.726c5.177.694,16.158,2.169,26.778,3.6,10.378-37.563,7.315-38.582,7.315-38.582a54.882,54.882,0,0,0-6.172-2.442c-.131-.044-.253-.077-.366-.115-1.729-.519-2.091-.591-4.4-1.119-3.954-.694-7.63-1.234-12.159-1.628-.292-.026-.582-.052-.865-.069-.82-.055-1.631-.093-2.415-.123-.529-.029-1.056-.032-1.558-.037-.595,0-1.173,0-1.716.006-.309,0-.608.007-.9.012a3.7,3.7,0,0,0-3.6,4.135C176.527,184.117,175.8,190.617,174.3,200.726Z" transform="translate(-39.816 -24.055)" fill="#ffc091"/><path d="M210.034,177.8c.182,1.741,4.212,4.928,5.6,4.069.405-2.083.694-3.827.9-5.279C214.5,176.444,210.539,174.211,210.034,177.8Z" transform="translate(-48.001 -27.611)" opacity="0.2"/><path d="M204.368,166.287c-.194-6.146,14.765.629,18.2,2.16l-3.8,10.32s-5.006-.174-8.2-2.014a12.953,12.953,0,0,1-6.2-10.466Z" transform="translate(-46.706 -24.865)" fill="#ffc091"/><path d="M191.013,132.2c.495,6.525.563,9.293,3.934,12.686,5.075,5.1,13.055,3.3,14.537-3.19,1.335-5.838.3-15.528-6.183-18.212a8.751,8.751,0,0,0-12.289,8.716Z" transform="translate(-43.647 -15.489)" fill="#b55b52"/><path d="M185.032,124.431c-6.557-1.639-6.761,3.893-6.625,6.762s-4.68,4.291-4.68,7.922c0,4.735,3.573,7.56-5.116,8.994-7.356,1.213-9.622,10.4,1.257,15.774,12.039,5.945,30.21-2.419,28-10.374-3.411-12.278,2.7-12.235,2.006-19.087-.5-4.986,4.216-5.234,2.522-9.388C200.176,119.583,184.453,114.8,185.032,124.431Z" transform="translate(-37.114 -14.616)" fill="#263238"/><path d="M181.77,134.949c-.9-4.745-.408-7.9,1.466-9.372,2.415-1.9,6.128-.251,6.285-.18l-.319.7c-.035-.016-3.449-1.526-5.491.085-1.628,1.283-2.027,4.184-1.183,8.62Z" transform="translate(-41.442 -15.932)" fill="#263238"/><path d="M170.824,152.887a15.1,15.1,0,0,1-4.937-1l.286-.716c.052.022,5.254,2.061,7.657.069,1.173-.973,1.507-2.8.993-5.426l.758-.147c.572,2.926.148,5-1.26,6.167a5.4,5.4,0,0,1-3.5,1.05Z" transform="translate(-37.912 -20.732)" fill="#263238"/><path d="M208.69,138a5.922,5.922,0,0,0,.9,3.454c.893,1.455,2.107,1.189,2.5-.049.356-1.113.319-3.212-.886-4.272C210.018,136.084,208.812,136.641,208.69,138Z" transform="translate(-47.692 -18.656)" fill="#b55b52"/><path d="M182.86,215.376s-10.4,43.949-15.257,69.195c-5.127,26.635-35.487,48.365-35.487,48.365l-6.667-6.859S145,308.968,150.022,284.1c10.193-50.484,3.293-60.654,13.131-71.366Z" transform="translate(-28.67 -36.058)" fill="#263238"/><path d="M132.361,366.546l-8.324-8.563,2.344-2.515,9.663,8.511Z" transform="translate(-28.347 -68.679)" fill="#ffc091"/><path d="M190.664,228.184c-8.085,7.02-7.21,31.925-6.364,43.15,3.394-15.958,7.47-33.73,9.86-44.015C193.308,226.685,192.15,226.894,190.664,228.184Z" transform="translate(-41.999 -39.313)" opacity="0.2"/><path d="M201.531,216.64s4.678,52.174,2.126,72.075c-2.654,20.7-16.162,65.74-16.162,65.74l-9.538-1.234s7.748-44.627,9.126-65.123c1.5-22.343-5.161-74.09-5.161-74.09Z" transform="translate(-40.67 -36.35)" fill="#263238"/><path d="M188.923,395.059,175.329,393.3l.209-4.012,14.748,1.43Z" transform="translate(-40.069 -76.409)" fill="#ffc091"/><path d="M173.575,210.594l-1.46,2.218c-.113.172.087.386.4.431l28.081,3.769c.241.032.454-.059.485-.207l.494-2.348c.035-.163-.16-.33-.424-.366l-27.118-3.639A.478.478,0,0,0,173.575,210.594Z" transform="translate(-39.328 -35.535)" fill="#407bff"/><path d="M173.575,210.594l-1.46,2.218c-.113.172.087.386.4.431l28.081,3.769c.241.032.454-.059.485-.207l.494-2.348c.035-.163-.16-.33-.424-.366l-27.118-3.639A.478.478,0,0,0,173.575,210.594Z" transform="translate(-39.328 -35.535)" fill="#ffc091" opacity="0.3"/><path d="M178.041,214.147l-.727-.1c-.144-.019-.247-.108-.228-.2l.669-3.046c.02-.089.154-.146.3-.127l.727.1c.144.019.247.108.228.2l-.669,3.046C178.319,214.109,178.185,214.166,178.041,214.147Z" transform="translate(-40.471 -35.589)" fill="#263238"/><path d="M201.817,217.393l-.726-.1c-.145-.019-.247-.108-.228-.2l.669-3.046c.019-.089.154-.147.3-.127l.727.1c.144.019.247.108.227.2l-.669,3.046C202.1,217.355,201.962,217.412,201.817,217.393Z" transform="translate(-45.905 -36.33)" fill="#263238"/><g transform="translate(206.493 94.746)" clip-path="url(#b)"><g transform="translate(0.768 0.175)"><path d="M1.566.134.028,18.921l4.133.014L4.81,10.86a4.928,4.928,0,0,1,.326-1.43,3.841,3.841,0,0,1,.7-1.15,3.136,3.136,0,0,1,1.038-.767,3.205,3.205,0,0,1,1.333-.279,2.611,2.611,0,0,1,.959.16,1.559,1.559,0,0,1,.651.467,1.806,1.806,0,0,1,.35.754,3.431,3.431,0,0,1,.055,1.021l-.731,9.32,4.159.014.741-9.634a6.043,6.043,0,0,0-.22-2.291,3.948,3.948,0,0,0-.97-1.626,4.142,4.142,0,0,0-1.577-.969,6.149,6.149,0,0,0-2.043-.319,5.343,5.343,0,0,0-1.222.106,5.6,5.6,0,0,0-1.17.376,5.789,5.789,0,0,0-2,1.481l.48-5.97Zm21,19.2a10.408,10.408,0,0,0,2.9-.364,6.321,6.321,0,0,0,2.207-1.1,5.173,5.173,0,0,0,1.449-1.806,6.709,6.709,0,0,0,.629-2.484l.651-9.153-4.182.006-.674,9.276a2.358,2.358,0,0,1-.053.511,2.469,2.469,0,0,1-.16.49,2.564,2.564,0,0,1-.261.453,2.632,2.632,0,0,1-1.256.942,2.535,2.535,0,0,1-.506.122,2.432,2.432,0,0,1-.519.014,2.377,2.377,0,0,1-.514-.018A2.27,2.27,0,0,1,21.8,16.1a2.18,2.18,0,0,1-.438-.227,2.117,2.117,0,0,1-.854-1.173,2.213,2.213,0,0,1-.083-.488,2.312,2.312,0,0,1,.027-.508l.69-9.26-4.156.006-.693,9.112a6.225,6.225,0,0,0,.259,2.474,4.231,4.231,0,0,0,1.17,1.806,5.275,5.275,0,0,0,2.025,1.109A9.729,9.729,0,0,0,22.568,19.33ZM33.088.043,31.754,19.03l3.881.013.145-2.1a4.669,4.669,0,0,0,.829,1.087,4.758,4.758,0,0,0,1.093.8,4.963,4.963,0,0,0,1.29.468,5.231,5.231,0,0,0,1.419.1,6.965,6.965,0,0,0,2.466-.417,5.744,5.744,0,0,0,2.088-1.344,6.908,6.908,0,0,0,1.508-2.383,11.751,11.751,0,0,0,.725-3.528,11.1,11.1,0,0,0-.268-3.52,5.823,5.823,0,0,0-1.193-2.369,4.793,4.793,0,0,0-1.9-1.335,6.522,6.522,0,0,0-2.4-.417,5.537,5.537,0,0,0-1.272.087,5.75,5.75,0,0,0-1.219.369,5.868,5.868,0,0,0-2.08,1.5L37.28.031ZM39.35,16.28a3.311,3.311,0,0,1-1.269-.231,2.353,2.353,0,0,1-.986-.762,3.459,3.459,0,0,1-.6-1.408,8.044,8.044,0,0,1-.1-2.169,8.417,8.417,0,0,1,.4-2.165,4.034,4.034,0,0,1,.788-1.4,2.83,2.83,0,0,1,1.086-.755,3.545,3.545,0,0,1,1.3-.226,3.411,3.411,0,0,1,1.363.245,2.178,2.178,0,0,1,.953.788,3.528,3.528,0,0,1,.522,1.41,9.109,9.109,0,0,1,.069,2.112,9.452,9.452,0,0,1-.354,2.126,4.071,4.071,0,0,1-.717,1.413,2.634,2.634,0,0,1-1.062.784A3.659,3.659,0,0,1,39.35,16.28Z" transform="translate(24.879 0.768)" fill="#003365"/><path d="M7.4.02A5.965,5.965,0,0,1,9.805.5a5.547,5.547,0,0,1,3.059,3.325,5.984,5.984,0,0,1,.284,2.444,6.638,6.638,0,0,1-.709,2.449,7.169,7.169,0,0,1-3.653,3.352,6.609,6.609,0,0,1-2.5.493,5.957,5.957,0,0,1-2.406-.5A5.547,5.547,0,0,1,.843,8.724a5.992,5.992,0,0,1-.27-2.439A6.644,6.644,0,0,1,1.287,3.85,7.17,7.17,0,0,1,4.92.518,6.615,6.615,0,0,1,7.4.02Z" transform="translate(0 0.02)" fill="#597ffb"/><path d="M7.4.02A6.01,6.01,0,0,1,9.816.5,5.583,5.583,0,0,1,12.9,3.836a5.99,5.99,0,0,1,.291,2.449,6.628,6.628,0,0,1-.706,2.455A7.168,7.168,0,0,1,8.822,12.1a6.641,6.641,0,0,1-2.508.494,6,6,0,0,1-2.418-.5A5.583,5.583,0,0,1,.837,8.743,6,6,0,0,1,.559,6.3,6.634,6.634,0,0,1,1.27,3.858,7.169,7.169,0,0,1,4.91.519,6.646,6.646,0,0,1,7.4.02Z" transform="translate(6.288 0)" fill="#ed6a04" opacity="0.316"/></g></g></g></svg>