<svg xmlns="http://www.w3.org/2000/svg" width="51" height="49" viewBox="0 0 51 49" fill="none"><rect x="1" y="1" width="49" height="47" rx="23.5" fill="#F3FAFF"></rect><rect x="1" y="1" width="49" height="47" rx="23.5" stroke="#DFEAF2"></rect><path d="M24.4688 26.8359V24.8203H24.6172C25.1432 24.8203 25.5339 24.7448 25.7891 24.5938C26.138 24.3958 26.3125 24.0599 26.3125 23.5859C26.3125 23.2682 26.2057 23.013 25.9922 22.8203C25.7839 22.6276 25.5182 22.5312 25.1953 22.5312C24.9193 22.5312 24.6901 22.6276 24.5078 22.8203C24.3255 23.013 24.2344 23.2526 24.2344 23.5391H22.1016C22.1016 22.7109 22.4062 21.9896 23.0156 21.375C23.625 20.7604 24.3516 20.4531 25.1953 20.4531C26.0703 20.4531 26.8281 20.7604 27.4688 21.375C28.1146 21.9844 28.4375 22.7266 28.4375 23.6016C28.4375 24.0495 28.3542 24.4531 28.1875 24.8125C28.026 25.1719 27.7682 25.474 27.4141 25.7188C28.013 25.9219 28.4844 26.3359 28.8281 26.9609C29.1354 27.5286 29.2891 28.1641 29.2891 28.8672C29.2891 29.9974 28.8854 30.9401 28.0781 31.6953C27.2917 32.4245 26.3255 32.7891 25.1797 32.7891C24.1224 32.7891 23.2005 32.4193 22.4141 31.6797C21.6328 30.9349 21.2422 30.0391 21.2422 28.9922H23.3828C23.3828 29.4766 23.5729 29.8854 23.9531 30.2188C24.3385 30.5469 24.7891 30.7109 25.3047 30.7109C25.8203 30.7109 26.2578 30.5312 26.6172 30.1719C26.9766 29.8073 27.1562 29.3672 27.1562 28.8516C27.1562 28.138 26.8802 27.5938 26.3281 27.2188C26.1042 27.0677 25.8542 26.9661 25.5781 26.9141C25.4635 26.8932 25.3229 26.875 25.1562 26.8594C24.9948 26.8438 24.8359 26.8359 24.6797 26.8359H24.4688Z" fill="#003E6B"></path></svg>