<svg xmlns="http://www.w3.org/2000/svg" width="51" height="49" viewBox="0 0 51 49" fill="none"><rect x="1" y="1" width="49" height="47" rx="23.5" fill="#F3FAFF"></rect><rect x="1" y="1" width="49" height="47" rx="23.5" stroke="#DFEAF2"></rect><path d="M25.5781 20.6797H28.0859L25.4453 24.6953L26.0391 24.6406C26.5026 24.6406 26.9427 24.7396 27.3594 24.9375C27.776 25.1302 28.1536 25.4089 28.4922 25.7734C28.8359 26.1328 29.0938 26.5495 29.2656 27.0234C29.4427 27.4922 29.5312 28.0104 29.5312 28.5781C29.5312 29.7396 29.138 30.7318 28.3516 31.5547C27.5651 32.3776 26.5964 32.7891 25.4453 32.7891C24.2734 32.7891 23.2943 32.3828 22.5078 31.5703C21.7266 30.7526 21.3359 29.75 21.3359 28.5625C21.3359 28.0781 21.4141 27.5938 21.5703 27.1094C21.7057 26.6823 21.9167 26.2552 22.2031 25.8281L25.5781 20.6797ZM25.4141 26.6094C24.8672 26.6094 24.4036 26.7995 24.0234 27.1797C23.6484 27.5599 23.4609 28.0365 23.4609 28.6094C23.4609 29.1875 23.6458 29.6823 24.0156 30.0938C24.3854 30.5052 24.8568 30.7109 25.4297 30.7109C25.9714 30.7109 26.4349 30.5156 26.8203 30.125C27.2057 29.7292 27.3984 29.2578 27.3984 28.7109C27.3984 28.1328 27.2083 27.638 26.8281 27.2266C26.4479 26.8151 25.9766 26.6094 25.4141 26.6094Z" fill="#003E6B"></path></svg>