<svg xmlns="http://www.w3.org/2000/svg" width="51" height="49" viewBox="0 0 51 49" fill="none"><rect x="1" y="1" width="49" height="47" rx="23.5" fill="#F3FAFF"></rect><rect x="1" y="1" width="49" height="47" rx="23.5" stroke="#DFEAF2"></rect><path d="M28.1875 20.6797V22.6953H24.4219L24.0547 24.8672C24.5443 24.6432 25.0365 24.5312 25.5312 24.5312C26.6146 24.5312 27.526 24.9505 28.2656 25.7891C28.9688 26.5859 29.3203 27.5365 29.3203 28.6406C29.3203 29.7604 28.9193 30.7318 28.1172 31.5547C27.3203 32.3776 26.362 32.7891 25.2422 32.7891C24.1953 32.7891 23.2656 32.4167 22.4531 31.6719C21.6146 30.9062 21.1953 30.013 21.1953 28.9922H23.3203C23.3828 29.4818 23.5833 29.8906 23.9219 30.2188C24.2656 30.5469 24.6771 30.7109 25.1562 30.7109C25.75 30.7109 26.2344 30.5156 26.6094 30.125C26.9896 29.7292 27.1797 29.224 27.1797 28.6094C27.1797 28.0677 26.9818 27.599 26.5859 27.2031C26.1901 26.8073 25.7214 26.6094 25.1797 26.6094C24.8828 26.6094 24.599 26.6771 24.3281 26.8125C24.0573 26.9479 23.8229 27.1432 23.625 27.3984L21.7188 26.8672L22.8438 20.6797H28.1875Z" fill="#003E6B"></path></svg>