<svg xmlns="http://www.w3.org/2000/svg" width="51" height="49" viewBox="0 0 51 49" fill="none"><rect x="1" y="1" width="49" height="47" rx="23.5" fill="#F3FAFF"></rect><rect x="1" y="1" width="49" height="47" rx="23.5" stroke="#DFEAF2"></rect><path d="M21.6719 32.5V30.4844L25.75 26.6953C26.0573 26.4089 26.2891 26.1771 26.4453 26C26.6849 25.7188 26.8646 25.4557 26.9844 25.2109C27.125 24.9141 27.1953 24.5964 27.1953 24.2578C27.1953 23.7578 27.0365 23.3464 26.7188 23.0234C26.401 22.6953 25.9922 22.5312 25.4922 22.5312C24.8932 22.5312 24.4323 22.7552 24.1094 23.2031C23.8177 23.6042 23.6719 24.1224 23.6719 24.7578H21.5469V24.3203C21.5469 23.2526 21.9193 22.3411 22.6641 21.5859C23.4141 20.8307 24.3151 20.4531 25.3672 20.4531C26.4922 20.4531 27.4323 20.8229 28.1875 21.5625C28.9427 22.3021 29.3203 23.2344 29.3203 24.3594C29.3203 24.8229 29.2422 25.263 29.0859 25.6797C28.9297 26.0964 28.6979 26.5026 28.3906 26.8984L26.9062 28.4688L24.6484 30.4844H29.3203V32.5H21.6719Z" fill="#003E6B"></path></svg>