<svg xmlns="http://www.w3.org/2000/svg" width="278" height="60" viewBox="0 0 278 60" fill="none"><path d="M276.936 4.66951C277.21 4.70467 277.461 4.51113 277.496 4.23724C277.531 3.96334 277.338 3.71281 277.064 3.67765L276.936 4.66951ZM0.922585 56.5414C33.6753 61.6743 56.9746 59.6635 76.0957 54.0726C95.2031 48.4857 110.113 39.3281 126.049 30.242C141.991 21.152 158.993 12.1099 182.36 6.66093C205.727 1.21157 235.489 -0.650282 276.936 4.66951L277.064 3.67765C235.526 -1.65373 205.641 0.204882 182.132 5.68706C158.622 11.1696 141.518 20.2701 125.553 29.3733C109.582 38.4802 94.7848 47.5662 75.8151 53.1128C56.8592 58.6553 33.7115 60.6678 1.07741 55.5534L0.922585 56.5414Z" fill="#B5B5B5"></path></svg>